<?xml version="1.0" standalone="no"?>
<!DOCTYPE svg PUBLIC "-//W3C//DTD SVG 20010904//EN"
 "http://www.w3.org/TR/2001/REC-SVG-20010904/DTD/svg10.dtd">
<svg version="1.0" xmlns="http://www.w3.org/2000/svg"
 width="600.000000pt" height="600.000000pt" viewBox="0 0 600.000000 600.000000"
 preserveAspectRatio="xMidYMid meet">
<metadata>
Created by potrace 1.11, written by Peter Selinger 2001-2013
</metadata>
<g transform="translate(0.000000,600.000000) scale(0.100000,-0.100000)"
fill="#000000" stroke="none">
<path d="M1835 4983 c-76 -13 -136 -27 -175 -40 -249 -80 -471 -287 -569 -530
-50 -122 -66 -206 -66 -348 0 -138 3 -161 34 -269 73 -252 263 -471 506 -581
67 -31 126 -51 180 -61 11 -2 31 -7 45 -10 14 -3 77 -8 140 -10 257 -7 488 84
671 265 178 177 268 385 275 636 3 134 -5 189 -47 320 -75 235 -264 446 -494
550 -126 58 -240 82 -383 82 -53 0 -106 -2 -117 -4z"/>
<path d="M3890 4976 c-101 -20 -147 -35 -229 -73 -108 -51 -185 -105 -271
-192 -177 -179 -261 -379 -266 -637 -2 -114 1 -143 25 -235 46 -179 119 -309
245 -435 141 -140 316 -232 501 -261 80 -13 274 -9 345 6 350 78 619 335 712
682 32 121 32 337 -1 459 -89 331 -344 586 -673 671 -103 26 -294 34 -388 15z"/>
<path d="M1785 2845 c-365 -67 -644 -333 -741 -705 -18 -70 -25 -278 -12 -360
56 -343 302 -628 634 -734 111 -36 124 -38 265 -41 106 -3 142 0 228 21 423
100 720 472 719 899 -1 218 -57 389 -186 562 -126 171 -333 308 -523 347 -13
3 -35 8 -49 11 -50 13 -266 13 -335 0z"/>
<path d="M3870 2841 c-91 -19 -167 -44 -215 -69 -16 -9 -32 -16 -35 -17 -3 0
-44 -26 -91 -57 -206 -137 -353 -364 -397 -613 -11 -66 -7 -286 7 -345 45
-189 123 -333 251 -461 112 -114 228 -186 377 -234 102 -33 142 -38 273 -39
123 -1 181 6 271 32 257 76 478 269 589 515 49 110 74 228 74 362 1 135 -4
180 -33 280 -89 307 -348 556 -661 635 -117 30 -295 35 -410 11z"/>
</g>
</svg>
